# xmcd
#
# Track frame offsets:
#	150
#	20357
#	32817
#	47996
#	61155
#	79909
#	94191
#	111472
#	132713
#	148401
#	159212
#
# Disc length: 2391 seconds
# Revision: 0
# Processed by: cddbd v1.5.2PL0 Copyright (c) Steve Scherf et al.
# Submitted via: dBpowerAMP V12.0
#
DISCID=9d09550b
DTITLE=Jack Derwin - Umina Blue
DYEAR=2019
DGENRE=Blues
TTITLE0=Umina Blue (Acoustic)
TTITLE1=Bad Case For The Blues
TTITLE2=Get The Monkey Off My Back
TTITLE3=Give Me One Good Reason
TTITLE4=Dragging My Chains
TTITLE5=Rolling
TTITLE6=Find My Way Again
TTITLE7=Lady Love
TTITLE8=Old Man At The Station
TTITLE9=Evil
TTITLE10=Umina Blue
EXTD=
EXTT0=
EXTT1=
EXTT2=
EXTT3=
EXTT4=
EXTT5=
EXTT6=
EXTT7=
EXTT8=
EXTT9=
EXTT10=
PLAYORDER=
